<mxfile host="65bd71144e">
    <diagram id="a8dRoUNdOCFNEtjJZeOP" name="第 1 页">
        <mxGraphModel dx="1023" dy="582" grid="1" gridSize="10" guides="1" tooltips="1" connect="1" arrows="1" fold="1" page="1" pageScale="1" pageWidth="827" pageHeight="1169" math="0" shadow="0">
            <root>
                <mxCell id="0"/>
                <mxCell id="1" parent="0"/>
                <mxCell id="18" style="edgeStyle=none;html=1;exitX=1;exitY=0.75;exitDx=0;exitDy=0;entryX=0;entryY=0.5;entryDx=0;entryDy=0;fontSize=18;" edge="1" parent="1" source="5" target="14">
                    <mxGeometry relative="1" as="geometry"/>
                </mxCell>
                <mxCell id="5" value="function Person() {}" style="swimlane;startSize=60;strokeWidth=2;fontSize=15;" vertex="1" parent="1">
                    <mxGeometry x="95" y="610" width="200" height="120" as="geometry"/>
                </mxCell>
                <mxCell id="6" value="&lt;font style=&quot;font-size: 20px&quot;&gt;prototype: 0x100&lt;/font&gt;" style="text;html=1;align=center;verticalAlign=middle;resizable=0;points=[];autosize=1;strokeColor=none;fillColor=none;" vertex="1" parent="5">
                    <mxGeometry x="20" y="80" width="160" height="20" as="geometry"/>
                </mxCell>
                <mxCell id="7" value="var&amp;nbsp; p1 = new Person()&lt;br&gt;var p2 = new Person()" style="text;html=1;align=center;verticalAlign=middle;resizable=0;points=[];autosize=1;strokeColor=none;fillColor=none;fontSize=15;" vertex="1" parent="1">
                    <mxGeometry x="120" y="800" width="170" height="40" as="geometry"/>
                </mxCell>
                <mxCell id="19" style="edgeStyle=none;html=1;exitX=1;exitY=0.75;exitDx=0;exitDy=0;entryX=0;entryY=0.5;entryDx=0;entryDy=0;fontSize=18;" edge="1" parent="1" source="9" target="14">
                    <mxGeometry relative="1" as="geometry"/>
                </mxCell>
                <mxCell id="9" value="p1对象" style="swimlane;fontSize=15;strokeWidth=2;startSize=30;" vertex="1" parent="1">
                    <mxGeometry x="105" y="880" width="200" height="80" as="geometry"/>
                </mxCell>
                <mxCell id="10" value="&lt;font style=&quot;font-size: 20px&quot;&gt;__proto__: 0x100&lt;/font&gt;" style="text;html=1;align=center;verticalAlign=middle;resizable=0;points=[];autosize=1;strokeColor=none;fillColor=none;" vertex="1" parent="9">
                    <mxGeometry x="-5" y="50" width="170" height="20" as="geometry"/>
                </mxCell>
                <mxCell id="20" style="edgeStyle=none;html=1;exitX=1;exitY=0.75;exitDx=0;exitDy=0;fontSize=18;" edge="1" parent="1" source="11">
                    <mxGeometry relative="1" as="geometry">
                        <mxPoint x="470" y="770" as="targetPoint"/>
                    </mxGeometry>
                </mxCell>
                <mxCell id="11" value="p2对象" style="swimlane;fontSize=15;strokeWidth=2;startSize=30;" vertex="1" parent="1">
                    <mxGeometry x="105" y="1000" width="200" height="80" as="geometry"/>
                </mxCell>
                <mxCell id="12" value="&lt;font style=&quot;font-size: 20px&quot;&gt;__proto__: 0x100&lt;/font&gt;" style="text;html=1;align=center;verticalAlign=middle;resizable=0;points=[];autosize=1;strokeColor=none;fillColor=none;" vertex="1" parent="11">
                    <mxGeometry x="-5" y="50" width="170" height="20" as="geometry"/>
                </mxCell>
                <mxCell id="14" value="Person 函数的原型对象" style="swimlane;fontSize=15;strokeWidth=2;startSize=40;" vertex="1" parent="1">
                    <mxGeometry x="470" y="720" width="200" height="80" as="geometry"/>
                </mxCell>
                <mxCell id="16" value="&lt;font style=&quot;font-size: 18px&quot;&gt;construstor&lt;/font&gt;" style="text;html=1;align=center;verticalAlign=middle;resizable=0;points=[];autosize=1;strokeColor=none;fillColor=none;fontSize=15;" vertex="1" parent="1">
                    <mxGeometry x="490" y="770" width="100" height="20" as="geometry"/>
                </mxCell>
                <mxCell id="21" value="0x100" style="text;html=1;align=center;verticalAlign=middle;resizable=0;points=[];autosize=1;strokeColor=none;fillColor=none;fontSize=18;" vertex="1" parent="1">
                    <mxGeometry x="510" y="690" width="60" height="30" as="geometry"/>
                </mxCell>
                <mxCell id="24" value="" style="curved=1;endArrow=classic;html=1;fontSize=18;exitX=1;exitY=0.75;exitDx=0;exitDy=0;" edge="1" parent="1" source="14">
                    <mxGeometry width="50" height="50" relative="1" as="geometry">
                        <mxPoint x="710" y="710" as="sourcePoint"/>
                        <mxPoint x="190" y="600" as="targetPoint"/>
                        <Array as="points">
                            <mxPoint x="760" y="710"/>
                            <mxPoint x="640" y="490"/>
                        </Array>
                    </mxGeometry>
                </mxCell>
            </root>
        </mxGraphModel>
    </diagram>
</mxfile>